<?xml version="1.0" standalone="no"?>
<!DOCTYPE svg PUBLIC "-//W3C//DTD SVG 20010904//EN"
 "http://www.w3.org/TR/2001/REC-SVG-20010904/DTD/svg10.dtd">
<svg version="1.0" xmlns="http://www.w3.org/2000/svg"
 width="1024.000000pt" height="1024.000000pt" viewBox="0 0 1024.000000 1024.000000"
 preserveAspectRatio="xMidYMid meet">

<g transform="translate(0.000000,1024.000000) scale(0.100000,-0.100000)"
fill="#000000" stroke="none">
<path d="M0 5120 l0 -5120 5120 0 5120 0 0 5120 0 5120 -5120 0 -5120 0 0
-5120z m1291 1968 c73 -25 830 -471 867 -510 12 -14 27 -40 32 -59 6 -20 10
-236 10 -527 0 -575 6 -539 -99 -606 -180 -115 -796 -467 -834 -477 -66 -16
-110 0 -317 121 -102 59 -282 163 -400 230 -266 152 -268 154 -291 204 -17 38
-19 75 -19 541 0 469 2 503 19 542 18 39 37 52 288 201 324 193 581 338 608
345 38 9 102 7 136 -5z m2421 -213 c144 -30 271 -110 337 -213 37 -58 69 -148
77 -216 l6 -51 -166 0 -167 0 -6 25 c-18 78 -92 160 -161 180 -22 7 -78 11
-129 9 -82 -4 -96 -7 -134 -34 -107 -75 -149 -179 -157 -382 -7 -205 22 -323
104 -413 60 -66 123 -93 219 -93 142 0 226 61 269 196 5 15 22 17 166 17 l160
0 0 -24 c0 -43 -46 -161 -85 -221 -90 -136 -262 -220 -472 -232 -295 -17 -511
95 -624 322 -66 134 -82 214 -82 405 0 192 16 270 84 410 78 159 232 275 414
314 93 19 256 20 347 1z m2723 -9 c161 -44 277 -140 315 -262 11 -36 20 -84
20 -105 l0 -39 -155 0 c-138 0 -155 2 -155 17 0 9 -12 36 -26 61 -39 65 -101
92 -219 92 -146 -1 -215 -45 -215 -140 0 -56 22 -89 76 -115 21 -10 131 -44
246 -76 115 -33 236 -73 269 -90 86 -43 151 -107 185 -182 25 -55 28 -73 28
-162 -1 -135 -25 -197 -108 -281 -114 -114 -244 -158 -471 -159 -128 0 -162 4
-232 24 -145 41 -257 124 -308 229 -25 50 -55 185 -44 196 7 7 32 8 169 7
l135 -1 18 -49 c22 -62 88 -123 154 -142 27 -8 87 -14 134 -13 139 1 216 51
226 145 4 35 0 51 -19 79 -35 52 -87 76 -253 115 -260 62 -345 96 -426 172
-67 62 -101 135 -107 228 -14 229 131 403 383 459 88 20 293 15 380 -8z m1310
-1 c197 -54 317 -180 332 -346 l6 -59 -157 0 c-139 0 -156 2 -156 17 0 9 -12
36 -26 61 -37 63 -102 92 -209 92 -102 0 -151 -14 -192 -55 -28 -28 -33 -40
-33 -83 0 -55 22 -92 71 -118 16 -8 120 -39 232 -70 227 -61 324 -103 392
-165 76 -70 98 -125 103 -249 3 -87 0 -115 -17 -163 -71 -203 -301 -319 -606
-304 -60 3 -137 13 -170 22 -137 37 -254 116 -309 209 -27 46 -56 149 -56 201
l0 30 152 -2 152 -2 19 -51 c39 -105 127 -154 277 -154 149 0 235 57 235 156
0 54 -24 92 -75 122 -18 11 -127 43 -242 72 -123 31 -236 66 -273 85 -82 40
-150 106 -183 177 -24 50 -27 70 -27 157 0 92 3 106 32 167 67 141 175 221
358 264 77 18 286 12 370 -11z m-2543 -317 c58 -172 165 -486 237 -697 72
-211 131 -388 131 -392 0 -5 -76 -9 -169 -9 l-170 0 -47 150 -47 150 -252 0
-251 0 -45 -147 -45 -148 -173 -3 c-163 -2 -173 -1 -166 15 4 10 109 320 235
688 126 369 232 678 235 688 7 15 26 17 214 17 l206 0 107 -312z m4228 177 l0
-135 -215 0 -215 0 0 -570 0 -570 -165 0 -165 0 0 570 0 570 -217 0 -218 0 3
135 3 135 595 0 594 0 0 -135z m-6278 -1695 c37 -11 98 -71 98 -97 0 -20 -79
-17 -87 2 -8 21 -56 45 -90 45 -62 0 -103 -60 -103 -150 0 -82 33 -139 88
-153 35 -8 90 11 108 38 12 19 25 25 50 25 42 0 44 -17 8 -60 -38 -45 -78 -62
-145 -61 -86 0 -133 30 -162 101 -26 62 -30 115 -13 174 35 120 125 170 248
136z m451 -187 c36 -104 69 -196 72 -205 6 -15 1 -18 -33 -18 -40 0 -41 1 -57
50 l-17 50 -76 0 -77 0 -18 -50 c-17 -47 -20 -50 -52 -50 -19 0 -35 2 -35 4 0
4 115 340 131 384 7 18 16 22 52 22 l44 0 66 -187z m321 20 c28 -89 52 -161
53 -159 2 1 24 74 51 162 l48 159 57 3 57 3 0 -206 0 -205 -30 0 -30 0 0 171
c0 111 -3 168 -10 164 -5 -3 -10 -14 -10 -23 0 -9 -21 -83 -47 -164 l-46 -148
-42 0 -42 0 -47 153 c-26 83 -50 159 -54 167 -4 8 -8 -60 -10 -152 l-2 -168
-30 0 -30 0 0 205 0 206 57 -3 57 -3 50 -162z m456 9 c0 -149 1 -160 21 -178
31 -28 106 -25 131 6 16 19 18 42 18 176 l0 154 38 0 37 0 -5 -167 c-5 -184
-11 -201 -66 -228 -42 -20 -146 -19 -184 0 -54 28 -64 63 -68 238 l-4 157 41
0 41 0 0 -158z m640 131 c0 -20 -32 -72 -105 -171 -58 -79 -105 -145 -105
-148 0 -2 50 -4 110 -4 l110 0 0 -30 0 -30 -150 0 -150 0 0 31 c0 24 25 66
101 173 l100 141 -100 3 -101 3 0 29 0 30 145 0 145 0 0 -27z m390 -1 c0 -20
-31 -69 -105 -170 -58 -78 -105 -144 -105 -147 0 -3 50 -5 110 -5 l110 0 0
-30 0 -30 -150 0 -150 0 0 30 c0 21 28 68 100 170 55 77 100 143 100 145 0 3
-43 5 -95 5 l-95 0 0 30 0 30 140 0 140 0 0 -28z m180 -177 l0 -205 -35 0 -35
0 0 205 0 205 35 0 35 0 0 -205z m490 202 c0 -2 32 -92 70 -201 39 -109 70
-200 70 -202 0 -2 -18 -4 -39 -4 -38 0 -40 1 -56 50 l-17 50 -78 0 -78 0 -17
-50 c-16 -47 -19 -50 -51 -50 -19 0 -34 3 -34 6 0 5 107 316 131 382 7 18 16
22 54 22 25 0 45 -1 45 -3z m459 -10 c43 -22 66 -64 65 -118 -1 -82 -63 -129
-169 -129 l-55 0 0 -75 0 -75 -40 0 -40 0 0 205 0 205 108 0 c65 0 116 -5 131
-13z m401 -2 c44 -23 60 -53 60 -111 0 -91 -57 -134 -177 -134 l-53 0 0 -75 0
-75 -35 0 -35 0 0 205 0 205 105 0 c75 0 115 -4 135 -15z m230 -160 l0 -175
95 0 95 0 0 -30 0 -30 -130 0 -130 0 0 205 0 205 35 0 35 0 0 -175z m350 -30
l0 -205 -35 0 -35 0 0 205 0 205 35 0 35 0 0 -205z m390 175 l0 -30 -100 0
-100 0 0 -56 0 -55 90 3 90 3 0 -32 0 -33 -90 0 -90 0 0 -60 0 -60 100 0 100
0 0 -30 0 -30 -135 0 -135 0 0 205 0 205 135 0 135 0 0 -30z m338 9 c64 -31
96 -85 100 -170 6 -92 -21 -148 -86 -186 -41 -24 -60 -28 -149 -31 l-103 -4 0
206 0 206 97 0 c78 0 105 -4 141 -21z m-5095 -666 c23 -12 57 -64 57 -88 0 -3
-18 -5 -39 -5 -30 0 -41 5 -46 19 -14 46 -116 51 -137 6 -15 -34 5 -62 55 -76
128 -34 165 -61 173 -126 13 -103 -123 -168 -241 -114 -47 21 -61 36 -70 74
-7 26 -6 27 34 27 29 0 41 -4 41 -14 0 -24 41 -46 85 -46 32 0 47 6 66 26 22
23 22 27 9 51 -12 20 -34 33 -98 53 -103 33 -127 55 -127 115 0 37 6 50 31 76
48 48 138 57 207 22z m1192 -7 c29 -19 67 -75 59 -88 -3 -4 -23 -8 -44 -8 -30
0 -40 5 -45 20 -12 39 -87 56 -134 31 -68 -37 -75 -205 -11 -263 45 -42 111
-35 151 14 11 14 25 19 53 16 l38 -3 -24 -34 c-36 -53 -71 -74 -131 -79 -71
-6 -119 11 -156 53 -85 97 -61 291 43 347 53 29 152 26 201 -6z m1147 8 c32
-16 68 -61 68 -83 0 -29 -63 -21 -94 12 -21 22 -33 27 -75 27 -42 0 -53 -4
-74 -30 -52 -62 -48 -181 9 -238 32 -32 38 -34 81 -29 35 4 53 12 69 32 17 22
28 26 58 23 l38 -3 -24 -34 c-42 -61 -71 -76 -152 -76 -65 0 -77 3 -110 29
-101 77 -105 266 -7 349 18 15 45 30 59 33 15 3 32 7 37 9 17 6 89 -7 117 -21z
m530 15 c48 -13 85 -46 94 -81 6 -26 4 -28 -26 -28 -23 0 -40 9 -60 30 -45 48
-130 32 -130 -24 0 -33 28 -54 90 -67 102 -21 140 -56 140 -127 0 -73 -63
-122 -157 -122 -64 0 -127 32 -147 74 -22 46 -22 46 24 46 22 0 40 -4 40 -10
0 -25 41 -50 83 -50 81 0 115 56 61 99 -15 12 -32 21 -39 21 -32 0 -120 34
-141 55 -18 18 -24 35 -24 69 0 90 90 144 192 115z m854 -10 c126 -38 155
-261 48 -361 -79 -73 -212 -62 -278 25 -59 78 -56 212 6 283 60 68 123 83 224
53z m1173 10 c54 -11 101 -53 101 -90 0 -31 -53 -25 -88 11 -48 47 -132 32
-132 -24 0 -32 26 -51 90 -66 107 -25 140 -55 140 -130 0 -33 -6 -53 -21 -69
-65 -70 -211 -68 -267 4 -34 43 -29 65 13 65 19 0 35 -4 35 -10 0 -25 41 -50
83 -50 51 0 87 22 87 55 0 32 -23 52 -73 65 -86 23 -107 32 -132 61 -29 35
-32 76 -10 119 16 32 43 49 90 61 17 4 31 7 32 8 1 1 25 -4 52 -10z m-4492
-22 c21 -11 37 -31 49 -63 16 -42 16 -50 3 -87 -21 -60 -56 -81 -147 -87 l-77
-5 -3 -77 -3 -78 -34 0 -35 0 0 211 0 211 108 -4 c75 -3 117 -9 139 -21z m423
-12 l0 -35 -100 0 -100 0 0 -50 0 -50 85 0 c77 0 85 -2 85 -19 0 -11 3 -26 6
-35 5 -14 -6 -16 -85 -16 l-91 0 0 -61 0 -60 100 3 100 3 0 -33 0 -33 -135 3
-136 3 0 203 c0 111 1 204 1 207 0 3 61 5 135 5 l135 0 0 -35z m590 -176 l0
-210 -36 3 -35 3 0 203 c0 111 1 204 1 207 0 3 16 5 35 5 l35 0 0 -211z m390
176 l0 -35 -100 0 -100 0 0 -56 0 -56 88 4 87 3 3 -32 3 -33 -90 0 -91 0 0
-91 0 -90 -36 3 -36 3 0 200 c1 110 1 203 1 208 1 4 62 7 136 7 l135 0 0 -35z
m160 -176 l0 -210 -37 3 -38 3 -3 208 -2 207 40 0 40 0 0 -211z m1310 202 c63
-13 100 -56 100 -117 0 -93 -50 -134 -164 -134 l-66 0 0 -81 0 -80 -37 3 -38
3 -2 208 -2 207 82 0 c45 -1 102 -5 127 -9z m917 -19 c36 -25 55 -77 46 -123
-6 -29 -39 -73 -62 -80 -10 -4 -1 -29 30 -89 24 -47 45 -88 47 -92 2 -5 -14
-8 -35 -8 -38 0 -39 1 -83 86 l-45 85 -40 -3 -40 -3 -3 -82 -3 -83 -34 0 -35
0 0 211 0 211 113 -3 c97 -4 116 -7 144 -27z m443 -7 l0 -35 -62 0 -63 0 0
-172 0 -173 -37 -3 -38 -3 0 175 0 176 -60 0 -60 0 0 35 0 35 160 0 160 0 0
-35z m-2121 -643 c37 -18 68 -55 73 -87 5 -32 -64 -21 -101 16 -40 40 -89 40
-133 0 -32 -28 -33 -33 -36 -113 -2 -69 0 -88 17 -115 27 -43 81 -59 136 -41
37 12 40 16 43 56 l3 42 -45 0 c-44 0 -46 1 -46 30 l0 30 80 0 80 0 0 -84 0
-84 -37 -24 c-52 -32 -172 -38 -223 -10 -94 50 -120 234 -47 336 43 60 164 85
236 48z m-2459 -22 l0 -30 -60 0 -60 0 0 -175 0 -175 -40 0 -40 0 0 175 0 175
-60 0 -60 0 0 30 0 30 160 0 160 0 0 -30z m330 15 c75 -39 81 -153 10 -200
l-28 -19 44 -88 44 -88 -38 0 c-38 0 -38 1 -77 80 l-39 80 -43 0 -43 0 0 -80
0 -80 -38 0 -37 0 0 205 0 205 108 0 c77 0 116 -4 137 -15z m397 -77 c17 -51
49 -144 71 -206 l41 -113 -41 3 c-39 3 -42 6 -56 46 l-14 42 -74 0 c-41 0 -77
1 -81 3 -4 1 -14 -19 -22 -45 -14 -46 -16 -48 -51 -48 l-37 0 71 205 71 205
45 0 46 0 31 -92z m268 -113 l0 -205 -37 0 -38 0 0 205 0 205 38 0 37 0 0
-205z m274 93 c32 -62 71 -135 85 -163 l25 -50 1 163 0 162 33 0 32 0 -3 -205
-3 -205 -43 0 -43 0 -86 158 -87 157 0 -157 0 -158 -35 0 -35 0 0 205 0 205
49 0 50 0 60 -112z m363 -93 l-3 -205 -34 0 -35 0 0 205 0 205 38 0 37 0 -3
-205z m298 47 l85 -157 3 158 3 157 29 0 30 0 0 -206 0 -205 -46 3 -46 3 -79
143 c-43 78 -79 147 -79 152 0 6 -5 10 -10 10 -7 0 -10 -52 -8 -155 l3 -155
-32 0 -33 0 0 205 0 205 48 0 47 0 85 -158z"/>
<path d="M4876 6580 c-2 -8 -39 -132 -81 -275 -42 -143 -78 -268 -81 -277 -5
-17 7 -18 166 -18 158 0 171 1 166 18 -3 9 -30 100 -62 201 -31 102 -67 226
-79 275 -13 50 -26 84 -29 76z"/>
<path d="M3472 4918 c-6 -24 -18 -64 -26 -90 l-15 -48 58 0 58 0 -26 90 c-14
49 -28 90 -31 90 -3 0 -11 -19 -18 -42z"/>
<path d="M5999 4870 l-27 -90 60 0 c51 0 59 2 54 16 -3 9 -16 49 -29 90 -12
41 -24 74 -27 74 -3 0 -17 -41 -31 -90z"/>
<path d="M6380 4905 l0 -65 58 0 c68 0 92 18 92 68 0 42 -31 62 -97 62 l-53 0
0 -65z"/>
<path d="M6770 4905 l0 -65 60 0 c68 0 100 21 100 65 0 42 -36 65 -102 65
l-58 0 0 -65z"/>
<path d="M8080 4825 l0 -145 45 0 c91 0 137 38 150 122 5 35 2 56 -13 91 -25
55 -62 77 -132 77 l-50 0 0 -145z"/>
<path d="M6750 4292 c-45 -22 -70 -72 -70 -140 0 -99 42 -152 120 -152 127 0
165 238 46 294 -43 20 -53 20 -96 -2z"/>
<path d="M3380 4225 l0 -65 51 0 c75 0 109 22 109 71 0 42 -28 59 -98 59 l-62
0 0 -65z"/>
<path d="M6300 4225 l0 -65 54 0 c90 0 137 59 86 110 -16 16 -33 20 -80 20
l-60 0 0 -65z"/>
<path d="M7160 4230 l0 -60 58 0 c69 0 102 19 102 59 0 44 -27 61 -98 61 l-62
0 0 -60z"/>
<path d="M3370 3570 l0 -60 60 0 c47 0 64 4 80 20 26 26 25 46 -5 75 -20 21
-34 25 -80 25 l-55 0 0 -60z"/>
<path d="M3827 3537 c-15 -46 -27 -86 -27 -90 0 -4 25 -7 55 -7 30 0 55 3 55
6 0 13 -44 159 -50 166 -3 5 -18 -29 -33 -75z"/>
</g>
</svg>
